<svg width="148" height="150" viewBox="0 0 148 150" fill="none" xmlns="http://www.w3.org/2000/svg">
<path d="M73.9801 49.771C60.3922 49.771 49.3034 60.9608 49.3034 74.6724C49.3034 88.3841 60.3922 99.5738 73.9801 99.5738C87.568 99.5738 98.6568 88.3841 98.6568 74.6724C98.6568 60.9608 87.568 49.771 73.9801 49.771ZM147.992 74.6724C147.992 64.3607 148.084 54.1423 147.51 43.8492C146.937 31.8936 144.234 21.2829 135.57 12.5403C126.888 3.77906 116.391 1.07036 104.544 0.491255C94.325 -0.0878474 84.1988 0.00555647 73.9986 0.00555647C63.7799 0.00555647 53.6538 -0.0878474 43.4536 0.491255C31.6058 1.07036 21.0909 3.79774 12.4272 12.5403C3.74496 21.3016 1.0607 31.8936 0.486822 43.8492C-0.0870547 54.161 0.00550633 64.3793 0.00550633 74.6724C0.00550633 84.9655 -0.0870547 95.2025 0.486822 105.496C1.0607 117.451 3.76348 128.062 12.4272 136.805C21.1094 145.566 31.6058 148.274 43.4536 148.854C53.6723 149.433 63.7984 149.339 73.9986 149.339C84.2173 149.339 94.3435 149.433 104.544 148.854C116.391 148.274 126.906 145.547 135.57 136.805C144.252 128.043 146.937 117.451 147.51 105.496C148.103 95.2025 147.992 84.9842 147.992 74.6724V74.6724ZM73.9801 112.987C52.9688 112.987 36.0117 95.875 36.0117 74.6724C36.0117 53.4698 52.9688 36.3582 73.9801 36.3582C94.9914 36.3582 111.949 53.4698 111.949 74.6724C111.949 95.875 94.9914 112.987 73.9801 112.987ZM113.504 43.7371C108.598 43.7371 104.636 39.7395 104.636 34.7891C104.636 29.8387 108.598 25.841 113.504 25.841C118.409 25.841 122.371 29.8387 122.371 34.7891C122.372 35.9646 122.144 37.1288 121.699 38.2151C121.254 39.3014 120.601 40.2884 119.777 41.1196C118.953 41.9508 117.975 42.6099 116.899 43.059C115.822 43.5082 114.668 43.7386 113.504 43.7371V43.7371Z" fill="#568265"/>
</svg>
