<svg width="148" height="148" viewBox="0 0 148 148" fill="none" xmlns="http://www.w3.org/2000/svg">
<path d="M136.932 34.2241C114.793 -0.00113136 69.5922 -10.1762 34.5388 11.099C0.407847 32.3741 -10.6616 78.6245 11.4773 112.85L13.3223 115.625L5.9426 143.375L33.6163 135.975L36.3837 137.825C48.3757 144.3 61.2901 148 74.2045 148C88.0414 148 101.878 144.3 113.87 136.9C148.001 114.7 158.148 69.3744 136.932 34.2241V34.2241ZM117.56 105.45C113.87 111 109.258 114.7 102.801 115.625C99.1109 115.625 94.4986 117.475 76.0494 110.075C60.3676 102.675 47.4532 90.6496 38.2286 76.7745C32.6939 70.2994 29.9265 61.9743 29.004 53.6493C29.004 46.2492 31.7714 39.7742 36.3837 35.1491C38.2286 33.2991 40.0735 32.3741 41.9185 32.3741H46.5308C48.3757 32.3741 50.2206 32.3741 51.143 36.0741C52.988 40.6992 57.6002 51.7993 57.6002 52.7243C58.5227 53.6493 58.5227 55.4993 57.6002 56.4243C58.5227 58.2743 57.6003 60.1243 56.6778 61.0493C55.7553 61.9743 54.8329 63.8244 53.9104 64.7494C52.0655 65.6744 51.143 67.5244 52.0655 69.3744C55.7553 74.9244 60.3676 80.4745 64.9799 85.0995C70.5147 89.7246 76.0494 93.4246 82.5066 96.1996C84.3515 97.1246 86.1964 97.1246 87.1189 95.2746C88.0414 93.4246 92.6537 88.7995 94.4986 86.9495C96.3435 85.0995 97.2659 85.0995 99.1109 86.0245L113.87 93.4246C115.715 94.3496 117.56 95.2746 118.482 96.1996C119.405 98.9746 119.405 102.675 117.56 105.45V105.45Z" fill="#568265"/>
</svg>
